<svg viewBox="105 155 260 190" fill="none" xmlns="http://www.w3.org/2000/svg">
<path d="M225.771 188.975H234.083C236.161 188.975 237.812 189.459 239.036 190.398C240.232 191.338 240.858 192.818 240.858 194.811C240.858 198.91 238.552 200.931 233.941 200.931H228.447V209.243H225.771V188.975ZM228.419 191.281V198.682H233.571C235.023 198.682 236.161 198.426 236.958 197.885C237.755 197.344 238.154 196.376 238.154 194.981C238.154 194.213 238.04 193.558 237.784 193.046C237.527 192.533 237.157 192.163 236.645 191.907C236.161 191.679 235.649 191.509 235.108 191.423C234.596 191.338 233.941 191.281 233.201 191.281H228.419ZM250.514 188.975L258.427 209.243H255.439L253.19 203.037H244.679L242.373 209.243H239.526L247.497 188.975H250.514ZM252.393 200.902L248.948 191.537L245.447 200.902H252.393ZM260.461 188.975H267.036C270.481 188.975 273.014 189.772 274.637 191.366C276.288 192.96 277.085 195.494 277.085 198.938C277.085 202.354 276.345 204.916 274.808 206.652C273.299 208.389 270.879 209.243 267.549 209.243H260.461V188.975ZM263.108 191.281L263.137 206.965H267.207C269.741 206.965 271.591 206.339 272.73 205.087C273.868 203.834 274.437 201.898 274.437 199.251C274.437 196.49 273.897 194.469 272.758 193.188C271.648 191.936 269.741 191.281 267.065 191.281H263.108ZM294.537 188.975V191.309H283.179V197.657H293.797V199.906H283.179V206.908H294.679V209.243H280.504V188.975H294.537ZM311.37 206.908V209.243H297.934V188.975H300.61V206.908H311.37Z" fill="#C04A30"/>
<path d="M223.352 231.68H226.312L232.148 249.329L238.04 231.68H240.858L233.628 251.947H230.553L223.352 231.68ZM257.093 231.68V234.014H245.735V240.362H256.353V242.611H245.735V249.613H257.235V251.947H243.059V231.68H257.093ZM260.347 231.68H263.279L273.982 248.133V231.68H276.572V251.947H273.555L262.909 235.694V251.947H260.347V231.68ZM295.066 231.68V234.014H288.263V251.947H285.587V234.014H278.784V231.68H295.066ZM297.207 231.68H299.911V244.461C299.911 246.454 300.338 247.877 301.192 248.788C302.046 249.699 303.441 250.154 305.377 250.154C307.369 250.154 308.764 249.699 309.59 248.759C310.415 247.848 310.842 246.397 310.842 244.461V231.68H313.546V243.749C313.546 246.71 312.92 248.902 311.696 250.296C310.444 251.691 308.337 252.374 305.377 252.374C302.473 252.374 300.395 251.72 299.114 250.353C297.833 248.987 297.207 246.881 297.207 244.034V231.68ZM317.892 231.68H326.802C331.328 231.68 333.605 233.559 333.605 237.288C333.605 238.483 333.264 239.508 332.638 240.419C332.011 241.33 331.157 241.928 330.133 242.212C330.816 242.383 331.357 242.582 331.784 242.867C332.182 243.152 332.495 243.55 332.694 244.062C332.865 244.575 333.008 245.03 333.065 245.429C333.121 245.827 333.15 246.425 333.207 247.194C333.207 247.279 333.207 247.478 333.235 247.763C333.235 248.048 333.264 248.247 333.264 248.361C333.264 248.475 333.264 248.645 333.292 248.902C333.321 249.186 333.349 249.385 333.378 249.499C333.378 249.642 333.406 249.812 333.463 250.04C333.491 250.268 333.548 250.467 333.605 250.61C333.662 250.752 333.719 250.923 333.805 251.093C333.862 251.264 333.947 251.435 334.061 251.577C334.146 251.72 334.26 251.834 334.374 251.947H331.3C331.157 251.777 331.043 251.52 330.958 251.236C330.873 250.951 330.816 250.638 330.787 250.239C330.73 249.841 330.702 249.528 330.702 249.3C330.673 249.072 330.645 248.702 330.645 248.247C330.616 247.791 330.616 247.535 330.616 247.478C330.503 245.77 330.161 244.603 329.535 244.034C328.909 243.465 327.713 243.18 325.891 243.18H320.568V251.947H317.892V231.68ZM320.568 233.957V241.045H325.607C326.233 241.045 326.745 241.045 327.172 240.988C327.599 240.96 328.083 240.874 328.595 240.732C329.108 240.618 329.506 240.419 329.819 240.163C330.133 239.935 330.389 239.565 330.616 239.109C330.816 238.654 330.93 238.113 330.93 237.458C330.93 236.092 330.503 235.181 329.677 234.697C328.852 234.213 327.741 233.957 326.318 233.957H320.568ZM351.413 231.68V234.014H340.055V240.362H350.672V242.611H340.055V249.613H351.555V251.947H337.379V231.68H351.413Z" fill="#C04A30"/>
<path d="M243.249 283.921L243.221 294.681H241.513L240.83 292.147C239.207 294.14 237.015 295.164 234.282 295.164C231.407 295.164 229.073 294.197 227.308 292.261C225.544 290.325 224.661 287.82 224.661 284.718C224.661 281.615 225.515 279.053 227.28 277.032C229.045 274.982 231.436 273.986 234.51 273.986C235.905 273.986 237.214 274.214 238.438 274.698C239.634 275.182 240.687 275.95 241.541 276.975C242.395 278 242.879 279.224 242.993 280.619H240.374C240.146 279.309 239.52 278.227 238.438 277.43C237.357 276.633 236.047 276.206 234.482 276.206C232.29 276.206 230.553 276.975 229.273 278.484C227.963 279.992 227.337 282.042 227.337 284.604C227.337 287.166 227.963 289.187 229.273 290.667C230.553 292.176 232.29 292.916 234.482 292.916C236.531 292.916 238.068 292.318 239.15 291.065C240.232 289.813 240.801 288.162 240.858 286.112H234.368V283.921H243.249ZM247.257 274.385H256.166C260.692 274.385 262.97 276.263 262.97 279.992C262.97 281.188 262.628 282.213 262.002 283.124C261.376 284.034 260.522 284.632 259.497 284.917C260.18 285.088 260.721 285.287 261.148 285.572C261.546 285.856 261.86 286.255 262.059 286.767C262.23 287.28 262.372 287.735 262.429 288.133C262.486 288.532 262.514 289.13 262.571 289.898C262.571 289.984 262.571 290.183 262.6 290.468C262.6 290.752 262.628 290.952 262.628 291.065C262.628 291.179 262.628 291.35 262.657 291.606C262.685 291.891 262.714 292.09 262.742 292.204C262.742 292.346 262.77 292.517 262.827 292.745C262.856 292.973 262.913 293.172 262.97 293.314C263.027 293.457 263.084 293.627 263.169 293.798C263.226 293.969 263.311 294.14 263.425 294.282C263.511 294.424 263.624 294.538 263.738 294.652H260.664C260.522 294.481 260.408 294.225 260.322 293.94C260.237 293.656 260.18 293.343 260.152 292.944C260.095 292.546 260.066 292.233 260.066 292.005C260.038 291.777 260.009 291.407 260.009 290.952C259.981 290.496 259.981 290.24 259.981 290.183C259.867 288.475 259.525 287.308 258.899 286.739C258.273 286.169 257.077 285.885 255.256 285.885H249.933V294.652H247.257V274.385ZM249.933 276.662V283.75H254.971C255.597 283.75 256.11 283.75 256.537 283.693C256.963 283.664 257.447 283.579 257.96 283.437C258.472 283.323 258.871 283.124 259.184 282.867C259.497 282.64 259.753 282.27 259.981 281.814C260.18 281.359 260.294 280.818 260.294 280.163C260.294 278.797 259.867 277.886 259.041 277.402C258.216 276.918 257.106 276.662 255.683 276.662H249.933ZM275.283 273.901C278.357 273.901 280.748 274.869 282.456 276.804C284.164 278.74 285.018 281.245 285.018 284.348C285.018 287.479 284.164 290.069 282.485 292.09C280.777 294.14 278.386 295.136 275.312 295.136C273.717 295.136 272.323 294.851 271.07 294.282C269.818 293.713 268.793 292.944 267.996 291.919C267.199 290.923 266.601 289.784 266.203 288.475C265.804 287.194 265.605 285.799 265.605 284.291C265.605 281.131 266.459 278.598 268.224 276.719C269.988 274.84 272.323 273.901 275.283 273.901ZM275.283 276.235C273.006 276.235 271.269 277.032 270.074 278.626C268.878 280.22 268.252 282.156 268.252 284.49C268.252 287.052 268.907 289.073 270.188 290.582C271.469 292.09 273.177 292.83 275.312 292.83C277.446 292.83 279.154 292.09 280.435 290.553C281.688 289.044 282.343 287.023 282.343 284.49C282.343 281.985 281.688 279.992 280.407 278.484C279.126 277.003 277.418 276.235 275.283 276.235ZM288.228 274.385H290.932V287.166C290.932 289.158 291.359 290.582 292.213 291.492C293.067 292.403 294.462 292.859 296.398 292.859C298.39 292.859 299.785 292.403 300.611 291.464C301.436 290.553 301.863 289.101 301.863 287.166V274.385H304.567V286.454C304.567 289.414 303.941 291.606 302.717 293.001C301.465 294.396 299.358 295.079 296.398 295.079C293.494 295.079 291.416 294.424 290.135 293.058C288.854 291.692 288.228 289.585 288.228 286.739V274.385ZM309.027 274.385H317.339C319.417 274.385 321.068 274.869 322.292 275.808C323.488 276.747 324.114 278.227 324.114 280.22C324.114 284.319 321.808 286.34 317.197 286.34H311.703V294.652H309.027V274.385ZM311.675 276.69V284.091H316.827C318.279 284.091 319.417 283.835 320.214 283.294C321.011 282.754 321.41 281.786 321.41 280.391C321.41 279.622 321.296 278.968 321.04 278.455C320.784 277.943 320.414 277.573 319.901 277.317C319.417 277.089 318.905 276.918 318.364 276.833C317.852 276.747 317.197 276.69 316.457 276.69H311.675Z" fill="#C04A30"/>
<path d="M191.35 166.25H122.79C119.008 166.25 115.941 169.317 115.941 173.099V327.124C115.941 330.906 119.008 333.973 122.79 333.973H191.35C195.133 333.973 198.199 330.906 198.199 327.124V173.099C198.199 169.317 195.133 166.25 191.35 166.25Z" fill="#C04A30" stroke="#DDD9CD" stroke-width="1.75065" stroke-miterlimit="10"/>
<path d="M115.941 191.755H198.199" stroke="#DDD9CD" stroke-width="1.75065" stroke-miterlimit="10"/>
<path d="M115.941 250.106H198.199" stroke="#DDD9CD" stroke-width="1.75065" stroke-miterlimit="10"/>
<path d="M115 307.243H198.2" stroke="#DDD9CD" stroke-width="1.75065" stroke-miterlimit="10"/>
<path d="M157.07 191.755V307.243" stroke="#DDD9CD" stroke-width="1.75065" stroke-miterlimit="10"/>
<path d="M177.4 282.033C179.533 282.033 181.262 280.304 181.262 278.171C181.262 276.038 179.533 274.309 177.4 274.309C175.267 274.309 173.537 276.038 173.537 278.171C173.537 280.304 175.267 282.033 177.4 282.033Z" fill="#F9F8ED"/>
</svg>
